<svg width="54" height="58" viewBox="0 0 54 58" fill="none" xmlns="http://www.w3.org/2000/svg">
<path d="M7.37374 36.2447C7.37374 38.1466 5.69774 39.5341 3.83738 39.5341C1.97702 39.5341 0.301025 37.9752 0.301025 36.2447V21.887C0.301025 19.9851 1.97702 18.5977 3.83738 18.5977C5.69774 18.5977 7.37374 20.1566 7.37374 21.887V36.2447Z" fill="white"/>
<path d="M43.4583 21.3726V23.6174V43.1664C43.4583 45.0683 41.7823 46.6272 39.7376 46.6272H36.9387C36.9387 46.9702 37.123 47.3131 37.123 47.4846V47.6561V48.7006V54.4063C37.123 56.3082 35.447 57.6956 33.5867 57.6956C31.5419 57.6956 30.0503 56.1367 30.0503 54.4063V48.7006V47.6717V47.5002C30.0503 47.1572 30.0503 46.8143 30.2347 46.6428H23.5307C23.5307 46.9858 23.715 47.3287 23.715 47.5002V47.6717V48.7162V54.4219C23.715 56.3238 22.039 57.7112 20.1787 57.7112C18.3183 57.7112 16.6423 56.1523 16.6423 54.4219V48.7162V47.6717V47.5002C16.6423 47.1572 16.6423 46.8143 16.8267 46.6428H14.0445C11.9998 46.6428 10.3238 45.0839 10.3238 43.182V23.6174V21.3726V18.5977H10.5082H43.6426H43.827L43.4583 21.3726Z" fill="white"/>
<path d="M53.1285 36.2447C53.1285 38.1466 51.4525 39.5341 49.5921 39.5341C47.5474 39.5341 46.0558 37.9752 46.0558 36.2447V21.887C46.0558 19.9851 47.7318 18.5977 49.5921 18.5977C51.6369 18.5977 53.1285 20.1566 53.1285 21.887V36.2447Z" fill="white"/>
<path d="M34.7093 5.11352L35.4468 4.25611L36.1842 3.3987L37.6759 1.32532C37.8602 1.15384 37.6758 0.810872 37.4915 0.63939C37.3071 0.467907 36.9384 0.639389 36.7541 0.810872L35.0781 3.05573L34.3406 3.91314L33.6032 4.95763C31.5585 4.25611 29.1283 3.74166 26.5305 3.74166C24.1003 3.74166 21.6868 4.10021 19.4577 4.95763L18.7203 3.91314L17.9829 3.05573L16.3069 0.810872C16.3069 0.467907 15.9381 0.63939 15.5694 0.63939C15.2007 0.63939 15.2007 1.15384 15.3851 1.32532L16.8767 3.3987L17.6141 4.25611L18.3516 5.11352C13.3236 7.35838 9.78723 11.5051 9.78723 16.3534H43.2737C43.2737 11.5207 39.7373 7.35838 34.7093 5.11352ZM19.4577 12.0352C18.4354 12.0352 17.5974 11.2557 17.5974 10.3048C17.5974 9.35381 18.4354 8.57434 19.4577 8.57434C20.4801 8.57434 21.3181 9.35381 21.3181 10.3048C21.3181 11.2557 20.4801 12.0352 19.4577 12.0352ZM33.7875 12.0352C32.7652 12.0352 31.9272 11.2557 31.9272 10.3048C31.9272 9.35381 32.7652 8.57434 33.7875 8.57434C34.8099 8.57434 35.6479 9.35381 35.6479 10.3048C35.6479 11.2557 34.8099 12.0352 33.7875 12.0352Z" fill="white"/>
</svg>
