<svg width="181" height="35" viewBox="0 0 181 35" fill="none" xmlns="http://www.w3.org/2000/svg">
<path d="M33.3863 0.662109L29.4488 4.47585L43.2658 17.7893L29.4488 31.172L33.3863 34.9164L51.0693 17.7893L33.3863 0.662109Z" fill="#EF443B"/>
<path d="M-8.81165e-07 17.8158L17.7177 34.9766L35.4355 17.8158L17.7177 0.655001L-8.81165e-07 17.8158Z" fill="#EF443B"/>
<path d="M74.2877 28.6056L72.8037 24.3201H65.4938L64.0098 28.6056H59.393L66.538 10.4785H71.7594L78.9044 28.6056H74.2877ZM71.8144 21.1183C70.4403 17.2269 69.7258 15.0103 69.5609 14.5177C69.3961 14.0251 69.2312 13.5818 69.1762 13.2862C68.8464 14.3207 68.022 16.9314 66.593 21.1183H71.8144Z" fill="white"/>
<path d="M95.283 28.6027H91.1059V20.5735C91.1059 19.5884 90.8861 18.8495 90.5014 18.3569C90.1166 17.8643 89.4571 17.618 88.6327 17.618C87.4785 17.618 86.5991 17.9629 86.1044 18.6525C85.6098 19.3421 85.335 20.5243 85.335 22.1498V28.6519H81.1579V14.8596H84.3456L84.8953 16.6329H85.1151C85.6098 15.9433 86.2144 15.4507 87.0388 15.1059C87.8632 14.7611 88.7976 14.6133 89.8418 14.6133C91.6556 14.6133 92.9747 15.0566 93.909 15.894C94.8434 16.7314 95.283 18.0121 95.283 19.6376V28.6027Z" fill="white"/>
<path d="M96.9869 14.8105H101.604L104.517 22.5934C104.791 23.283 104.956 24.0711 105.011 25.007H105.121C105.231 24.1696 105.396 23.3815 105.726 22.5934L108.584 14.8105H113.091L106.55 30.3762C105.946 31.8047 105.121 32.8884 104.022 33.6272C102.923 34.3661 101.604 34.7109 100.12 34.7109C99.4052 34.7109 98.6907 34.6617 97.9762 34.5139V31.5091C98.4709 31.6077 99.0205 31.6569 99.6251 31.6569C100.395 31.6569 100.999 31.4599 101.549 31.0658C102.098 30.6717 102.538 30.0314 102.868 29.2433L103.143 28.5536L96.9869 14.8105Z" fill="white"/>
<path d="M132.272 19.3915C132.272 22.347 131.338 24.6129 129.469 26.2384C127.601 27.8639 124.853 28.6028 121.28 28.6028H115.564V10.5742H121.885C125.182 10.5742 127.711 11.3624 129.524 12.8894C131.338 14.4656 132.272 16.633 132.272 19.3915ZM127.82 19.49C127.82 15.5986 125.897 13.6775 122.104 13.6775H119.851V25.401H121.665C125.787 25.4502 127.82 23.4799 127.82 19.49Z" fill="white"/>
<path d="M142.385 28.8494C139.912 28.8494 137.988 28.2583 136.559 27.0268C135.185 25.7954 134.471 24.0713 134.471 21.8054C134.471 19.4903 135.13 17.717 136.394 16.4363C137.659 15.1556 139.472 14.5645 141.726 14.5645C143.924 14.5645 145.573 15.1063 146.782 16.2392C147.991 17.3722 148.596 18.8992 148.596 20.8203V22.6428H138.648C138.703 23.7265 139.033 24.5639 139.692 25.155C140.352 25.7461 141.286 26.0417 142.495 26.0417C143.43 26.0417 144.309 25.9431 145.133 25.7954C145.958 25.5983 146.837 25.352 147.717 24.958V27.8642C147.002 28.209 146.178 28.4553 145.353 28.6031C144.584 28.7509 143.594 28.8494 142.385 28.8494ZM141.781 17.2244C140.901 17.2244 140.187 17.4707 139.692 17.9633C139.198 18.4559 138.923 19.1947 138.813 20.1307H144.694C144.694 19.1947 144.419 18.5051 143.869 17.9633C143.375 17.4707 142.66 17.2244 141.781 17.2244Z" fill="white"/>
<path d="M162.831 24.5142C162.831 25.9427 162.282 27.0264 161.182 27.7653C160.083 28.5041 158.434 28.8982 156.236 28.8982C155.136 28.8982 154.147 28.849 153.378 28.7012C152.608 28.5534 151.839 28.3564 151.179 28.1101V25.0068C151.949 25.3516 152.828 25.5979 153.817 25.8442C154.807 26.0905 155.631 26.189 156.401 26.189C157.94 26.189 158.709 25.7949 158.709 25.0068C158.709 24.7112 158.599 24.465 158.379 24.2679C158.159 24.0709 157.83 23.8739 157.335 23.6276C156.84 23.3813 156.181 23.135 155.356 22.7902C154.147 22.3468 153.323 21.9528 152.773 21.5587C152.224 21.1646 151.839 20.7706 151.564 20.278C151.289 19.7854 151.179 19.1943 151.179 18.4554C151.179 17.224 151.729 16.2881 152.773 15.5984C153.817 14.9088 155.356 14.6133 157.28 14.6133C159.149 14.6133 160.962 14.9581 162.666 15.697L161.402 18.4062C160.633 18.1106 159.918 17.8643 159.259 17.6673C158.599 17.4703 157.885 17.3718 157.225 17.3718C155.961 17.3718 155.356 17.6673 155.356 18.2584C155.356 18.6032 155.576 18.8988 155.961 19.1451C156.346 19.3913 157.225 19.7362 158.599 20.2287C159.808 20.6721 160.688 21.0661 161.237 21.4602C161.787 21.8543 162.227 22.2976 162.501 22.7902C162.666 23.2335 162.831 23.8246 162.831 24.5142Z" fill="white"/>
<path d="M169.482 21.1161L171.295 18.998L175.582 14.811H180.309L174.208 20.7713L180.749 28.6033H175.912L171.46 23.0371L169.646 24.3179V28.6033H165.469V9.39258H169.646V17.9635L169.427 21.1161H169.482Z" fill="white"/>
</svg>
