<svg width="65" height="65" viewBox="0 0 65 65" fill="none" xmlns="http://www.w3.org/2000/svg">
<path d="M20.3211 32.4262C20.3211 38.959 25.836 44.3485 32.5207 44.3485C39.2054 44.3485 44.7203 38.959 44.7203 32.4262C44.7203 25.8934 39.2054 20.5039 32.5207 20.5039C25.6317 20.5039 20.3211 25.8934 20.3211 32.4262Z" fill="white"/>
<path d="M60.2808 16.836C60.2808 16.6364 60.2808 16.4549 60.2808 16.2553C57.5326 11.6461 53.3918 7.79901 48.6754 4.9137C43.7547 2.02839 38.0542 0.685547 32.335 0.685547C22.4937 0.685547 13.2465 5.11331 6.95177 12.6079C6.74752 12.8075 6.74752 12.9889 6.95177 13.1885L16.0133 28.5768C16.0133 28.7765 16.2175 28.7765 16.4032 28.7765C16.6074 28.7765 16.7931 28.5768 16.7931 28.3954C18.5571 21.663 24.8705 16.8542 32.1494 16.8542C32.5393 16.8542 33.1335 16.8542 33.5234 16.8542H59.5009C60.0765 17.0356 60.2808 16.836 60.2808 16.836Z" fill="white"/>
<path d="M37.2371 47.4315C37.0329 47.2319 36.8472 47.2319 36.6429 47.2319C35.2689 47.6129 33.8948 47.8126 32.3164 47.8126C26.2074 47.8126 20.5068 44.3466 17.9444 38.957L4.94634 16.8363C4.94634 16.6367 4.74209 16.6367 4.5564 16.6367C4.35215 16.6367 4.16646 16.8363 4.16646 16.8363C1.41831 21.6452 0.0256653 27.0347 0.0256653 32.4242C0.0256653 40.1184 2.77382 47.4315 7.89875 53.2021C13.0237 58.9727 19.9126 62.6202 27.5815 63.7815C27.7857 63.7815 27.9714 63.5819 27.9714 63.5819L37.0329 48.1936C37.4414 47.8126 37.4414 47.6129 37.2371 47.4315Z" fill="white"/>
<path d="M62.249 20.5039H43.9403C43.7361 20.5039 43.5504 20.7035 43.3461 20.885C43.3461 21.0846 43.3461 21.2661 43.5504 21.4657C46.707 24.351 48.2668 28.3977 48.2668 32.4262C48.2668 35.5111 47.2827 38.5779 45.5186 41.2817L32.5206 63.4024C32.5206 63.602 32.5206 63.7835 32.5206 63.9831C32.5206 64.1827 32.7249 64.1827 32.9106 64.1827C41.5635 64.1827 49.6409 60.7167 55.5457 54.7647C61.6548 48.7944 64.9971 40.9188 64.9971 32.4444C64.9971 28.3977 64.2172 24.5506 62.8246 20.9031C62.6389 20.6854 62.4346 20.5039 62.249 20.5039Z" fill="white"/>
</svg>
