<svg width="71" height="76" viewBox="0 0 71 76" fill="none" xmlns="http://www.w3.org/2000/svg">
<path d="M45.7466 14.0211C47.6136 11.6551 50.8469 9.82617 53.5527 9.82617C53.8909 13.1066 52.7004 16.387 50.8334 18.753C48.9664 21.119 45.9089 22.9479 43.0273 22.7592C42.5132 19.6675 44.042 16.1983 45.7466 14.0211Z" fill="white"/>
<path d="M60.6959 59.2081C58.4907 62.6627 56.2855 66.1318 52.7139 66.1318C49.1423 66.1318 48.1277 63.94 44.0555 63.94C39.9834 63.94 38.7928 66.1318 35.3971 66.306C32.0014 66.4947 29.2821 62.6627 27.0769 59.1936C22.4907 52.2698 19.095 39.3367 23.6812 30.7728C26.0623 26.4037 30.1344 23.849 34.5448 23.6603C37.9405 23.6603 41.1739 26.215 43.2032 26.215C45.246 26.215 49.1423 23.1233 53.228 23.6603C54.9326 23.6603 59.6812 24.3861 62.9011 29.3067C62.7252 29.4954 57.1243 32.9501 57.3001 40.0625C57.3001 48.6265 64.2675 51.3553 64.4298 51.544C64.2539 51.3699 63.2393 55.3761 60.6959 59.2081Z" fill="white"/>
<path d="M17.9996 63.1932C18.6873 63.1932 19.2447 62.5951 19.2447 61.8573C19.2447 61.1196 18.6873 60.5215 17.9996 60.5215C17.312 60.5215 16.7546 61.1196 16.7546 61.8573C16.7546 62.5951 17.312 63.1932 17.9996 63.1932Z" fill="white"/>
<path d="M10.5313 66.3129C8.24496 66.3129 6.37799 64.3098 6.37799 61.8567V28.0362C6.37799 25.5832 8.23143 23.5801 10.5313 23.5801H25.467C27.7534 23.5801 29.6204 25.5687 29.6204 28.0362V61.8567C29.6204 64.3098 27.7534 66.3129 25.467 66.3129H10.5313ZM8.05555 61.8567C8.05555 63.3227 9.17844 64.5275 10.5448 64.5275H25.4806C26.847 64.5275 27.9699 63.3227 27.9699 61.8567V59.1859H8.05555V61.8567ZM27.9563 57.415V32.4924H8.05555V57.415H27.9563ZM27.9563 30.707V28.0362C27.9563 26.5702 26.8334 25.3654 25.467 25.3654H10.5313C9.16491 25.3654 8.04203 26.5702 8.04203 28.0362V30.707H27.9563Z" fill="white"/>
<path d="M15.5098 28.9369C15.0498 28.9369 14.6846 28.545 14.6846 28.0514C14.6846 27.5579 15.0498 27.166 15.5098 27.166H20.4884C20.9484 27.166 21.3137 27.5579 21.3137 28.0514C21.3137 28.545 20.9484 28.9369 20.4884 28.9369H15.5098Z" fill="white"/>
</svg>
