<svg width="55" height="62" viewBox="0 0 55 62" fill="none" xmlns="http://www.w3.org/2000/svg">
<path d="M31.1171 5.31017C33.5011 2.76681 37.63 0.800781 41.0852 0.800781C41.5171 4.32715 39.9968 7.85353 37.6128 10.3969C35.2287 12.9402 31.3244 14.9063 27.6447 14.7034C26.9882 11.3799 28.9403 7.65068 31.1171 5.31017Z" fill="white"/>
<path d="M50.2068 53.8836C47.3908 57.5973 44.5749 61.3265 40.0141 61.3265C35.4533 61.3265 34.1576 58.9704 28.9576 58.9704C23.7576 58.9704 22.2373 61.3265 17.9011 61.5137C13.5649 61.7166 10.0925 57.5973 7.27651 53.868C1.42003 46.4252 -2.91619 32.5226 2.94029 23.3166C5.98083 18.6199 11.1808 15.8737 16.8127 15.6709C21.1489 15.6709 25.2778 18.4171 27.8692 18.4171C30.4779 18.4171 35.4533 15.0936 40.6706 15.6709C42.8473 15.6709 48.9111 16.451 53.0227 21.7406C52.7981 21.9435 45.646 25.6571 45.8706 33.3027C45.8706 42.5088 54.7676 45.4422 54.9749 45.645C54.7503 45.4578 53.4546 49.7643 50.2068 53.8836Z" fill="white"/>
</svg>
