<svg width="193" height="47" viewBox="0 0 193 47" fill="none" xmlns="http://www.w3.org/2000/svg">
<g clip-path="url(#clip0_2305_214744)">
<path d="M22.8057 44.2188C34.0947 44.2188 43.2462 35.0673 43.2462 23.7783C43.2462 12.4894 34.0947 3.33789 22.8057 3.33789C11.5168 3.33789 2.36531 12.4894 2.36531 23.7783C2.36531 35.0673 11.5168 44.2188 22.8057 44.2188Z" fill="white"/>
<path d="M18.3691 17.125L16.6799 21.2274H29.1062L27.417 17.125L40.0384 23.5199L27.417 29.9147L29.1062 25.8123H16.6799L18.3557 29.9147L5.70149 23.5199L18.3691 17.125Z" fill="#004680"/>
<path d="M42.9393 0.972656H2.67221C1.96414 0.974729 1.28567 1.25693 0.784983 1.75761C0.284301 2.25829 0.00210305 2.93677 3.05176e-05 3.64484L3.05176e-05 43.912C0.00210305 44.6201 0.284301 45.2985 0.784983 45.7992C1.28567 46.2999 1.96414 46.5821 2.67221 46.5842H42.9393C43.6474 46.5821 44.3259 46.2999 44.8266 45.7992C45.3273 45.2985 45.6095 44.6201 45.6115 43.912V3.64484C45.6095 2.93676 45.3273 2.25828 44.8266 1.7576C44.3259 1.25692 43.6474 0.974723 42.9393 0.972656V0.972656ZM22.8058 42.5806C19.0871 42.5806 15.4518 41.4779 12.3598 39.4119C9.26783 37.3459 6.8579 34.4094 5.43481 30.9737C4.01171 27.538 3.63937 23.7575 4.36486 20.1103C5.09035 16.463 6.88109 13.1128 9.51063 10.4832C12.1402 7.85368 15.4904 6.06294 19.1377 5.33746C22.785 4.61197 26.5655 4.98432 30.0011 6.40742C33.4368 7.83052 36.3733 10.2405 38.4393 13.3325C40.5053 16.4245 41.608 20.0597 41.608 23.7784C41.608 26.2476 41.1217 28.6925 40.1768 30.9737C39.2319 33.2549 37.8469 35.3277 36.101 37.0736C34.355 38.8196 32.2823 40.2045 30.0011 41.1494C27.7199 42.0943 25.2749 42.5806 22.8058 42.5806Z" fill="#004680"/>
</g>
<path d="M70.0718 14.6364V31.5254H66.3019V14.6364H70.0718ZM75.2104 14.6364V17.5711H61.2677V14.6364H75.2104ZM81.741 31.7574C80.7434 31.7574 79.8503 31.5989 79.0615 31.2818C78.2727 30.9647 77.6038 30.5278 77.0548 29.971C76.5134 29.4065 76.0997 28.757 75.8136 28.0223C75.5275 27.2877 75.3844 26.5028 75.3844 25.6676V25.2268C75.3844 24.2911 75.5159 23.4289 75.7788 22.6401C76.0417 21.8513 76.4245 21.1669 76.9272 20.587C77.4375 19.9992 78.0639 19.5469 78.8063 19.2298C79.5487 18.905 80.3954 18.7426 81.3466 18.7426C82.2359 18.7426 83.0286 18.8896 83.7245 19.1834C84.4205 19.4695 85.0082 19.8833 85.4877 20.4246C85.9671 20.9581 86.3306 21.6039 86.578 22.3617C86.8332 23.1118 86.9608 23.9547 86.9608 24.8904V26.3752H76.846V24.0436H83.4113V23.7653C83.4113 23.3245 83.3301 22.9378 83.1678 22.6053C83.0131 22.2728 82.7811 22.0176 82.4718 21.8397C82.1702 21.6541 81.7874 21.5613 81.3234 21.5613C80.8826 21.5613 80.5153 21.6541 80.2215 21.8397C79.9276 22.0253 79.6917 22.2882 79.5139 22.6285C79.3437 22.961 79.22 23.3515 79.1427 23.8001C79.0654 24.2408 79.0267 24.7164 79.0267 25.2268V25.6676C79.0267 26.1548 79.0924 26.5994 79.2239 27.0015C79.3553 27.4037 79.5487 27.7478 79.8039 28.0339C80.0591 28.32 80.3684 28.5443 80.7318 28.7067C81.0953 28.8691 81.509 28.9503 81.973 28.9503C82.5452 28.9503 83.0904 28.842 83.6085 28.6255C84.1267 28.4012 84.5752 28.0532 84.9541 27.5815L86.6476 29.5187C86.3924 29.8898 86.0329 30.2494 85.5689 30.5974C85.1126 30.9377 84.5636 31.2161 83.9217 31.4326C83.2799 31.6491 82.553 31.7574 81.741 31.7574ZM95.3705 28.5327V23.1505C95.3705 22.7716 95.3125 22.4468 95.1965 22.1761C95.0806 21.9054 94.8988 21.6928 94.6514 21.5381C94.4039 21.3835 94.083 21.3061 93.6886 21.3061C93.3561 21.3061 93.0661 21.3641 92.8186 21.4801C92.5789 21.5961 92.3933 21.7624 92.2618 21.9789C92.1381 22.1954 92.0763 22.4622 92.0763 22.7793H88.4572C88.4572 22.2148 88.5848 21.6889 88.84 21.2017C89.0952 20.7146 89.4586 20.2854 89.9303 19.9142C90.4098 19.543 90.982 19.2569 91.6471 19.0558C92.3121 18.847 93.0584 18.7426 93.8858 18.7426C94.8679 18.7426 95.7417 18.9089 96.5073 19.2414C97.2806 19.5662 97.8915 20.0572 98.34 20.7146C98.7886 21.3641 99.0128 22.1838 99.0128 23.1737V28.4283C99.0128 29.1861 99.0554 29.7816 99.1404 30.2146C99.2332 30.64 99.3647 31.0111 99.5348 31.3282V31.5254H95.8809C95.7108 31.1619 95.5832 30.7134 95.4981 30.1798C95.4131 29.6385 95.3705 29.0895 95.3705 28.5327ZM95.8229 23.8696L95.8461 25.8648H94.0482C93.6461 25.8648 93.2981 25.915 93.0042 26.0156C92.7181 26.1161 92.4861 26.2553 92.3082 26.4332C92.1304 26.6033 91.9989 26.8043 91.9139 27.0363C91.8365 27.2606 91.7979 27.5081 91.7979 27.7787C91.7979 28.0339 91.8597 28.2659 91.9835 28.4747C92.1072 28.6758 92.2773 28.8343 92.4938 28.9503C92.7104 29.0663 92.9617 29.1243 93.2478 29.1243C93.7195 29.1243 94.1217 29.0315 94.4542 28.8459C94.7944 28.6603 95.0574 28.436 95.2429 28.1731C95.4285 27.9024 95.5213 27.6511 95.5213 27.4191L96.3913 28.9271C96.2521 29.2364 96.082 29.5573 95.8809 29.8898C95.6799 30.2146 95.4247 30.5201 95.1154 30.8062C94.806 31.0846 94.431 31.3127 93.9902 31.4906C93.5571 31.6685 93.0352 31.7574 92.4242 31.7574C91.6355 31.7574 90.9202 31.5989 90.2783 31.2818C89.6365 30.957 89.1222 30.5124 88.7356 29.9478C88.3566 29.3833 88.1672 28.7338 88.1672 27.9991C88.1672 27.3418 88.287 26.758 88.5268 26.2476C88.7665 25.7372 89.1261 25.3041 89.6055 24.9484C90.0927 24.5927 90.7036 24.3259 91.4383 24.148C92.1729 23.9624 93.0313 23.8696 94.0134 23.8696H95.8229ZM105.021 21.6077V31.5254H101.402V18.9746H104.801L105.021 21.6077ZM104.557 24.8092L103.641 24.8324C103.641 23.9508 103.745 23.1427 103.954 22.4081C104.171 21.6657 104.484 21.02 104.894 20.471C105.304 19.9219 105.81 19.4966 106.413 19.195C107.024 18.8934 107.728 18.7426 108.524 18.7426C109.081 18.7426 109.588 18.8277 110.044 18.9978C110.5 19.1602 110.891 19.4193 111.216 19.775C111.548 20.123 111.803 20.5792 111.981 21.1437C112.159 21.7005 112.248 22.3694 112.248 23.1505V31.5254H108.629V23.5913C108.629 23.0345 108.559 22.613 108.42 22.3269C108.289 22.033 108.095 21.832 107.84 21.7237C107.585 21.6155 107.279 21.5613 106.924 21.5613C106.537 21.5613 106.193 21.6464 105.891 21.8165C105.598 21.9789 105.35 22.207 105.149 22.5009C104.948 22.7948 104.797 23.1389 104.697 23.5333C104.604 23.9276 104.557 24.353 104.557 24.8092ZM111.877 24.6236L110.728 24.7164C110.728 23.8658 110.829 23.077 111.03 22.3501C111.231 21.6232 111.533 20.9929 111.935 20.4594C112.337 19.918 112.836 19.4966 113.431 19.195C114.034 18.8934 114.734 18.7426 115.531 18.7426C116.118 18.7426 116.652 18.8277 117.131 18.9978C117.619 19.1679 118.036 19.4425 118.384 19.8214C118.74 20.2003 119.014 20.6991 119.208 21.3177C119.401 21.9286 119.498 22.6788 119.498 23.5681V31.5254H115.855V23.5681C115.855 23.019 115.786 22.6014 115.647 22.3153C115.515 22.0292 115.322 21.832 115.067 21.7237C114.819 21.6155 114.521 21.5613 114.174 21.5613C113.787 21.5613 113.45 21.6425 113.164 21.8049C112.878 21.9596 112.638 22.1761 112.445 22.4545C112.252 22.7252 112.109 23.0461 112.016 23.4173C111.923 23.7885 111.877 24.1906 111.877 24.6236ZM128.128 28.9619L133.104 14.6364H135.528L129.276 31.5254H127.548L128.128 28.9619ZM123.476 14.6364L128.406 28.9619L129.021 31.5254H127.293L121.052 14.6364H123.476ZM139.809 18.9746V31.5254H137.651V18.9746H139.809ZM137.489 15.6455C137.489 15.2975 137.593 15.0037 137.802 14.764C138.018 14.5242 138.335 14.4044 138.753 14.4044C139.163 14.4044 139.476 14.5242 139.693 14.764C139.917 15.0037 140.029 15.2975 140.029 15.6455C140.029 15.978 139.917 16.2642 139.693 16.5039C139.476 16.7359 139.163 16.8519 138.753 16.8519C138.335 16.8519 138.018 16.7359 137.802 16.5039C137.593 16.2642 137.489 15.978 137.489 15.6455ZM148.462 31.7574C147.588 31.7574 146.795 31.6105 146.084 31.3166C145.38 31.015 144.773 30.5936 144.263 30.0522C143.76 29.5109 143.374 28.8691 143.103 28.1267C142.832 27.3843 142.697 26.5724 142.697 25.6908V25.2036C142.697 24.1828 142.848 23.2742 143.149 22.4777C143.451 21.6735 143.861 20.9929 144.379 20.4362C144.897 19.8794 145.485 19.4579 146.142 19.1718C146.799 18.8857 147.48 18.7426 148.184 18.7426C149.081 18.7426 149.854 18.8973 150.503 19.2066C151.161 19.5159 151.698 19.949 152.116 20.5058C152.533 21.0548 152.843 21.7044 153.044 22.4545C153.245 23.1969 153.345 24.0088 153.345 24.8904V25.8532H143.973V24.1016H151.199V23.9392C151.169 23.3825 151.053 22.8412 150.851 22.3153C150.658 21.7895 150.349 21.3564 149.923 21.0161C149.498 20.6759 148.918 20.5058 148.184 20.5058C147.696 20.5058 147.248 20.6102 146.838 20.819C146.428 21.02 146.076 21.3216 145.782 21.7237C145.489 22.1258 145.26 22.6169 145.098 23.1969C144.936 23.7769 144.854 24.4458 144.854 25.2036V25.6908C144.854 26.2862 144.936 26.8469 145.098 27.3727C145.268 27.8908 145.512 28.3471 145.829 28.7415C146.154 29.1359 146.544 29.4452 147 29.6695C147.464 29.8937 147.99 30.0058 148.578 30.0058C149.336 30.0058 149.978 29.8512 150.503 29.5419C151.029 29.2325 151.489 28.8188 151.884 28.3007L153.183 29.3331C152.912 29.7429 152.568 30.1334 152.151 30.5046C151.733 30.8758 151.219 31.1774 150.608 31.4094C150.005 31.6414 149.289 31.7574 148.462 31.7574ZM159.029 29.2983L162.254 18.9746H163.669L163.391 21.0277L160.108 31.5254H158.728L159.029 29.2983ZM156.86 18.9746L159.609 29.4143L159.806 31.5254H158.356L154.714 18.9746H156.86ZM166.755 29.3331L169.376 18.9746H171.51L167.868 31.5254H166.43L166.755 29.3331ZM163.982 18.9746L167.137 29.1243L167.497 31.5254H166.128L162.753 21.0045L162.474 18.9746H163.982ZM178.923 31.7574C178.049 31.7574 177.256 31.6105 176.545 31.3166C175.841 31.015 175.234 30.5936 174.723 30.0522C174.221 29.5109 173.834 28.8691 173.564 28.1267C173.293 27.3843 173.158 26.5724 173.158 25.6908V25.2036C173.158 24.1828 173.308 23.2742 173.61 22.4777C173.911 21.6735 174.321 20.9929 174.839 20.4362C175.358 19.8794 175.945 19.4579 176.603 19.1718C177.26 18.8857 177.94 18.7426 178.644 18.7426C179.541 18.7426 180.314 18.8973 180.964 19.2066C181.621 19.5159 182.159 19.949 182.576 20.5058C182.994 21.0548 183.303 21.7044 183.504 22.4545C183.705 23.1969 183.806 24.0088 183.806 24.8904V25.8532H174.433V24.1016H181.66V23.9392C181.629 23.3825 181.513 22.8412 181.312 22.3153C181.119 21.7895 180.809 21.3564 180.384 21.0161C179.959 20.6759 179.379 20.5058 178.644 20.5058C178.157 20.5058 177.708 20.6102 177.299 20.819C176.889 21.02 176.537 21.3216 176.243 21.7237C175.949 22.1258 175.721 22.6169 175.559 23.1969C175.396 23.7769 175.315 24.4458 175.315 25.2036V25.6908C175.315 26.2862 175.396 26.8469 175.559 27.3727C175.729 27.8908 175.972 28.3471 176.289 28.7415C176.614 29.1359 177.005 29.4452 177.461 29.6695C177.925 29.8937 178.451 30.0058 179.039 30.0058C179.796 30.0058 180.438 29.8512 180.964 29.5419C181.49 29.2325 181.95 28.8188 182.344 28.3007L183.644 29.3331C183.373 29.7429 183.029 30.1334 182.611 30.5046C182.194 30.8758 181.679 31.1774 181.068 31.4094C180.465 31.6414 179.75 31.7574 178.923 31.7574ZM188.457 20.9465V31.5254H186.311V18.9746H188.399L188.457 20.9465ZM192.378 18.905L192.366 20.9001C192.189 20.8615 192.018 20.8383 191.856 20.8306C191.701 20.8151 191.524 20.8074 191.323 20.8074C190.828 20.8074 190.391 20.8847 190.012 21.0393C189.633 21.194 189.312 21.4105 189.049 21.6889C188.786 21.9673 188.577 22.2998 188.423 22.6865C188.276 23.0654 188.179 23.483 188.133 23.9392L187.529 24.2872C187.529 23.5294 187.603 22.818 187.75 22.1529C187.904 21.4879 188.14 20.9001 188.457 20.3898C188.774 19.8717 189.177 19.4695 189.664 19.1834C190.159 18.8896 190.746 18.7426 191.427 18.7426C191.582 18.7426 191.759 18.762 191.96 18.8006C192.162 18.8316 192.301 18.8664 192.378 18.905Z" fill="white"/>
<defs>
<clipPath id="clip0_2305_214744">
<rect width="45.6115" height="45.6115" fill="white" transform="translate(0 0.972656)"/>
</clipPath>
</defs>
</svg>
