<svg width="53" height="70" viewBox="0 0 53 70" fill="none" xmlns="http://www.w3.org/2000/svg">
<circle opacity="0.4" cx="26.5" cy="26.5" r="26.5" fill="black"/>
<path d="M16.5 24.5L16.5 28.5" stroke="white" stroke-width="2" stroke-linecap="round" stroke-linejoin="round"/>
<path d="M26.1892 27.3881L16.3171 23.8342C15.5075 23.5427 15.4876 22.405 16.2865 22.0854L26.1593 18.1363C26.3783 18.0487 26.6223 18.0471 26.8425 18.1317L37.1096 22.0806C37.9238 22.3938 37.9041 23.5524 37.0798 23.8378L26.8121 27.392C26.6101 27.4619 26.3903 27.4605 26.1892 27.3881Z" stroke="white" stroke-width="2" stroke-linecap="round" stroke-linejoin="round"/>
<path d="M20 26V32.5C20 34.1569 21.3431 35.5 23 35.5H31C32.6569 35.5 34 34.1569 34 32.5V25.5" stroke="white" stroke-width="2" stroke-linecap="round" stroke-linejoin="round"/>
</svg>
