<svg width="53" height="70" viewBox="0 0 53 70" fill="none" xmlns="http://www.w3.org/2000/svg">
<circle opacity="0.4" cx="26.5" cy="26.5" r="26.5" fill="black"/>
<path d="M27.1853 24.5252V32.167H24.7981V24.5252H27.1853ZM24.6568 22.5547C24.6568 22.2157 24.7792 21.9379 25.0241 21.7213C25.2689 21.5048 25.5867 21.3965 25.9775 21.3965C26.3683 21.3965 26.6862 21.5048 26.931 21.7213C27.1758 21.9379 27.2983 22.2157 27.2983 22.5547C27.2983 22.8937 27.1758 23.1715 26.931 23.3881C26.6862 23.6047 26.3683 23.713 25.9775 23.713C25.5867 23.713 25.2689 23.6047 25.0241 23.3881C24.7792 23.1715 24.6568 22.8937 24.6568 22.5547Z" fill="white"/>
<path d="M12.8601 35.375L26.5 11.75L40.1399 35.375H12.8601Z" stroke="white" stroke-width="1.75"/>
</svg>
