<svg width="213" height="56" viewBox="0 0 213 56" fill="none" xmlns="http://www.w3.org/2000/svg">
<g clip-path="url(#clip0_1410_7546)">
<path d="M61.0562 11.2439C59.3376 11.2569 57.6479 11.7689 56.1354 12.7347C54.623 13.7006 53.3341 15.0909 52.3818 16.7837C51.8227 13.199 49.5844 11.2439 46.0859 11.2439C44.5562 11.2358 43.047 11.6604 41.6841 12.4823C40.3213 13.3042 39.1442 14.4996 38.251 15.9689L38.9504 11.7311H37.5517C36.6225 11.7698 35.7312 12.1765 35.0205 12.8858C34.3099 13.5952 33.8211 14.5662 33.6325 15.6434L30.276 37.9682H35.0312L37.1292 24.4423C37.8286 19.7173 40.2071 16.4624 43.9843 16.4624C47.2024 16.4624 48.3224 18.5812 47.6213 22.3297L45.2428 37.9745H49.9998L51.8191 24.4486C52.5185 19.7236 54.897 16.4687 58.6742 16.4687C61.8923 16.4687 63.0123 18.5875 62.3112 22.336L59.9327 37.9808H64.6897L67.3522 21.1957C68.332 14.9903 65.9535 11.2439 61.0562 11.2439ZM88.1995 11.7332L78.9695 28.6821L75.0468 11.7311H70.0111L75.7479 34.5452L67.3539 49.7007H70.2916C70.9699 49.6943 71.6353 49.4811 72.2236 49.0816C72.8119 48.6821 73.3031 48.1099 73.6499 47.4202L93.3754 11.5694H88.1995V11.7332ZM119.399 4.7235H113.383L99.2525 19.8811L101.491 4.7235H100.092C99.1634 4.76258 98.2727 5.16912 97.5624 5.87803C96.8522 6.58694 96.3635 7.55725 96.1746 8.63365L91.6963 37.9682H96.4462L98.8247 22.1617L108.898 37.9682H114.913L104.288 20.8576L119.399 4.7235ZM133.529 16.7837L134.369 11.4056C133.915 11.2527 133.441 11.1972 132.97 11.2418C131.252 11.2336 129.561 11.7553 128.064 12.7554C126.568 13.7555 125.317 15.1996 124.436 16.9453L125.276 11.7311H123.877C122.948 11.7703 122.057 12.1771 121.347 12.8865C120.637 13.5958 120.148 14.5666 119.96 15.6434L116.601 37.9682H121.358L123.178 25.908C123.4 23.2765 124.468 20.8463 126.16 19.1182C127.852 17.3902 130.04 16.4959 132.273 16.6199C132.683 16.7463 133.107 16.8014 133.531 16.7837H133.529ZM150.319 29.9841C149.553 31.233 148.541 32.2418 147.37 32.9232C146.2 33.6046 144.907 33.9379 143.603 33.8942C139.685 33.8942 137.166 31.2861 137.447 26.3973H156.196C158.016 17.7601 154.244 11.2418 146.822 11.2418C143.501 11.2055 140.275 12.5595 137.715 15.0645C135.155 17.5696 133.426 21.0644 132.834 24.9316C131.714 32.754 135.771 38.4575 142.774 38.4575C145.319 38.5097 147.826 37.731 150.021 36.2068C152.217 34.6827 154.014 32.4722 155.216 29.8182H150.319V29.9841ZM146.123 15.8051C146.839 15.7312 147.56 15.831 148.242 16.0983C148.924 16.3656 149.553 16.7949 150.089 17.3597C150.626 17.9245 151.06 18.613 151.364 19.3831C151.668 20.1532 151.836 20.9887 151.858 21.8383H138.427C139.062 20.0456 140.132 18.5157 141.502 17.442C142.872 16.3682 144.48 15.7986 146.123 15.8051ZM184.463 1.30054C183.534 1.33963 182.644 1.74616 181.934 2.45507C181.223 3.16398 180.735 4.13429 180.546 5.2107L178.867 16.2923C178.17 14.6974 177.101 13.3731 175.786 12.4773C174.471 11.5814 172.966 11.1518 171.451 11.2397C168.317 11.4263 165.336 12.8928 163.014 15.3891C160.692 17.8855 159.174 21.2571 158.719 24.9294C157.46 32.9094 161.097 38.6192 167.393 38.6192C169.076 38.6217 170.738 38.1849 172.262 37.3399C173.786 36.4948 175.133 35.2624 176.208 33.7304L175.508 38.1404H180.265L185.718 1.46854H184.46L184.463 1.30054ZM177.608 24.9294C177.291 27.2928 176.271 29.4447 174.732 30.998C173.193 32.5512 171.237 33.404 169.214 33.4028C165.156 33.4028 162.918 29.9799 163.618 24.9294C163.894 22.6041 164.863 20.4722 166.352 18.9184C167.84 17.3646 169.748 16.4913 171.733 16.4561C175.789 16.2944 178.302 19.8811 177.603 24.9316L177.608 24.9294ZM190.759 6.67648C191.609 6.70219 192.439 6.37326 193.104 5.74737C193.769 5.12149 194.226 4.2386 194.396 3.25352C194.676 1.29844 193.556 -0.0056397 191.734 -0.0056397C190.919 -0.0370384 190.122 0.272704 189.482 0.868968C188.842 1.46523 188.4 2.30972 188.235 3.25352C188.156 3.68448 188.163 4.13138 188.255 4.55863C188.348 4.98588 188.523 5.38168 188.768 5.71451C189.012 6.04733 189.319 6.30799 189.664 6.47573C190.009 6.64346 190.382 6.71364 190.754 6.68068L190.759 6.67648ZM183.764 37.9661H188.521L192.438 11.729H187.681L183.764 37.9661ZM203.479 11.7311L204.599 4.5597L202.36 5.049C201.577 5.24338 200.857 5.70002 200.286 6.36455C199.716 7.02909 199.319 7.87355 199.142 8.79745L198.723 11.7374H194.385L193.686 16.79H198.024L196.345 27.8715C195.225 35.0429 198.443 38.4638 203.2 38.4638C205.583 38.4604 207.932 37.7905 210.055 36.5087L209.915 32.0988C208.244 32.7943 206.504 33.2325 204.739 33.4028C201.801 33.4028 200.541 31.284 201.102 27.5355L202.781 16.7795H212.295L212.994 11.7269H203.479V11.7311ZM11.9473 26.0718C11.8975 25.9963 11.8338 25.9353 11.7611 25.8933C11.6883 25.8513 11.6085 25.8294 11.5275 25.8294C11.4466 25.8294 11.3667 25.8513 11.294 25.8933C11.2212 25.9353 11.1575 25.9963 11.1077 26.0718L1.16774 37.6427C0.427764 38.5344 0.0131836 39.7341 0.0131836 40.9838C0.0131836 42.2334 0.427764 43.4331 1.16774 44.3248L2.28777 45.6289C2.46465 45.86 2.6805 46.0448 2.9214 46.1712C3.16231 46.2976 3.42293 46.3629 3.68647 46.3629C3.95001 46.3629 4.21063 46.2976 4.45154 46.1712C4.69244 46.0448 4.90829 45.86 5.08517 45.6289L15.579 33.407C15.9171 32.9585 16.1039 32.3785 16.1039 31.7775C16.1039 31.1765 15.9171 30.5965 15.579 30.1479L11.9473 26.0718Z" fill="#2689EB"/>
<path d="M6.06726 2.46044C5.47103 1.82937 4.6991 1.48047 3.89909 1.48047C3.09909 1.48047 2.32715 1.82937 1.73093 2.46044L0.891355 3.44112C0.609332 3.77289 0.385525 4.16733 0.232805 4.60178C0.0800854 5.03624 0.00146484 5.50212 0.00146484 5.97264C0.00146484 6.44317 0.0800854 6.90905 0.232805 7.3435C0.385525 7.77795 0.609332 8.1724 0.891355 8.50416L12.7839 22.385L15.8653 26.1376C16.4094 26.7405 16.7401 27.5649 16.7908 28.4449C16.8416 29.3248 16.6085 30.1947 16.1386 30.8794L18.2367 28.4308C18.8996 27.6827 19.4273 26.7832 19.7878 25.7868C20.1484 24.7903 20.3343 23.7177 20.3343 22.6338C20.3343 21.5499 20.1484 20.4773 19.7878 19.4809C19.4273 18.4845 18.8996 17.585 18.2367 16.8369L6.06726 2.46044ZM95.0303 48.0194C95.0303 49.3255 94.4711 49.9786 93.6316 49.9786C92.792 49.9786 92.2328 49.4893 92.2328 48.1832V47.6939H91.3933V48.1832C91.3694 48.5582 91.4147 48.935 91.5263 49.2872C91.6378 49.6394 91.8128 49.9587 92.0391 50.2229C92.2654 50.4871 92.5377 50.6898 92.8369 50.817C93.1361 50.9441 93.4551 50.9927 93.7718 50.9593C94.0996 50.988 94.4288 50.9306 94.7356 50.7911C95.0425 50.6517 95.3195 50.4337 95.5468 50.1527C95.7742 49.8717 95.9461 49.5348 96.0505 49.166C96.1548 48.7971 96.1889 48.4056 96.1503 48.0194V41.9777H95.3107V48.0194H95.0303ZM101.743 47.5301C101.778 47.8374 101.757 48.15 101.681 48.4469C101.606 48.7438 101.477 49.018 101.304 49.251C101.131 49.4841 100.918 49.6705 100.679 49.7979C100.44 49.9252 100.181 49.9904 99.9186 49.9891C98.9388 49.9891 98.5199 49.336 98.5199 48.1937V44.1092H97.6803V48.5192C97.6511 48.8596 97.6843 49.2036 97.7779 49.5274C97.8714 49.8512 98.023 50.1473 98.2222 50.3954C98.4215 50.6435 98.6637 50.8377 98.9323 50.9648C99.2009 51.0918 99.4895 51.1487 99.7784 51.1315C100.207 51.1287 100.627 50.991 100.996 50.7327C101.364 50.4744 101.668 50.1047 101.876 49.6615V50.9677H102.716V44.1092H101.876V47.5385L101.743 47.5301ZM106.779 46.877C105.521 46.5494 105.1 46.3877 105.1 45.8963C105.1 45.2432 105.659 44.9156 106.639 44.9156C107.478 44.9156 108.037 45.2432 108.178 45.8963H109.017C108.877 45.2589 108.542 44.7057 108.077 44.3437C107.612 43.9817 107.05 43.8368 106.5 43.937C105.102 43.937 104.122 44.7539 104.122 46.0601C104.122 47.2025 104.821 47.5301 106.5 48.0194C107.619 48.347 108.179 48.5087 108.179 49.1618C108.179 49.8148 107.48 50.1424 106.641 50.1424C105.522 50.1424 104.961 49.8148 104.688 48.8363H103.708C103.852 49.5598 104.218 50.1944 104.735 50.617C105.252 51.0395 105.883 51.2199 106.506 51.1231C107.764 51.1231 108.884 50.47 108.884 49.0001C109.165 47.5301 108.185 47.3663 106.786 46.877H106.779ZM113.204 49.9891C112.225 49.9891 111.806 49.336 111.806 48.1937V44.9177H114.468V43.937H111.806V42.1415L110.966 42.3053V43.9391H109.848V44.9198H110.966V48.1832C110.923 48.5345 110.946 48.8927 111.033 49.2326C111.119 49.5724 111.268 49.8857 111.468 50.1503C111.668 50.415 111.914 50.6246 112.19 50.7643C112.466 50.9041 112.764 50.9707 113.064 50.9593C113.61 51.0216 114.157 50.8478 114.603 50.47L114.463 49.6531C114.061 49.8396 113.636 49.9501 113.204 49.9807V49.9891ZM120.482 45.4175C120.266 44.9455 119.941 44.5563 119.544 44.2959C119.148 44.0354 118.696 43.9145 118.244 43.9475C117.858 43.9555 117.478 44.0556 117.127 44.2419C116.775 44.4282 116.459 44.6968 116.197 45.0315C115.935 45.3662 115.733 45.7602 115.604 46.1896C115.474 46.619 115.419 47.075 115.443 47.5301C115.406 47.9887 115.451 48.4514 115.576 48.888C115.7 49.3245 115.901 49.7253 116.165 50.0641C116.428 50.403 116.75 50.6724 117.107 50.8549C117.465 51.0373 117.851 51.1287 118.24 51.1231C118.688 51.1203 119.127 50.9842 119.518 50.7273C119.91 50.4704 120.24 50.1009 120.478 49.6531V50.9593H121.318V44.1092H120.478L120.482 45.4175ZM118.38 49.9891C117.84 49.9122 117.343 49.6039 116.982 49.1225C116.622 48.6412 116.422 48.0201 116.422 47.3768C116.422 46.7334 116.622 46.1124 116.982 45.631C117.343 45.1497 117.84 44.8414 118.38 44.7644C118.944 44.8023 119.475 45.094 119.863 45.5797C120.251 46.0655 120.467 46.7085 120.467 47.3768C120.467 48.0451 120.251 48.688 119.863 49.1738C119.475 49.6596 118.944 49.9513 118.38 49.9891ZM131.808 46.8854H130.969C130.868 47.5164 130.679 48.1231 130.41 48.6809C129.876 47.8918 129.266 47.1793 128.592 46.5578C129.71 45.7409 130.271 45.0878 130.271 44.1092C130.262 43.8387 130.208 43.5729 130.112 43.3274C130.015 43.082 129.878 42.8616 129.709 42.6793C129.54 42.497 129.342 42.3563 129.126 42.2654C128.911 42.1745 128.682 42.1353 128.454 42.1499C128.205 42.1233 127.954 42.1585 127.718 42.2532C127.481 42.348 127.264 42.5002 127.08 42.7001C126.896 42.9 126.75 43.1433 126.65 43.4141C126.55 43.685 126.499 43.9776 126.501 44.273C126.501 44.9261 126.781 45.4154 127.481 46.3961C126.501 47.0492 125.802 47.7023 125.802 48.8447C125.802 50.3146 126.92 51.1315 128.319 51.1315C129.144 51.159 129.946 50.8076 130.557 50.1508L131.256 50.9677H132.374L131.116 49.4977C131.494 48.6907 131.732 47.8026 131.815 46.8854H131.808ZM127.472 44.1092C127.472 43.2923 127.891 42.9668 128.59 42.9668C129.29 42.9668 129.57 43.4561 129.57 43.9475C129.57 44.4389 129.29 44.9282 128.171 45.743C127.61 44.9177 127.472 44.5901 127.472 44.1092ZM128.312 49.9891C127.193 49.9891 126.632 49.3361 126.632 48.5192C126.632 47.8661 127.051 47.5385 127.891 46.8854C128.45 47.5385 129.009 48.3554 129.843 49.334C129.637 49.5575 129.395 49.7306 129.132 49.843C128.869 49.9555 128.589 50.0051 128.31 49.9891H128.312ZM136.283 43.1306H138.8V50.806H139.64V43.1222H142.018V42.1415H136.283V43.1306ZM143.417 45.5792V44.1092H142.577V50.9677H143.417V47.6939C143.374 47.3425 143.396 46.9843 143.483 46.6445C143.57 46.3046 143.718 45.9913 143.918 45.7267C144.118 45.4621 144.365 45.2525 144.641 45.1127C144.917 44.9729 145.215 44.9064 145.515 44.9177H145.934V43.7753H145.515C145.05 43.7771 144.598 43.9513 144.221 44.2734C143.845 44.5955 143.564 45.0493 143.417 45.5708V45.5792ZM151.669 45.4154C151.453 44.9434 151.128 44.5542 150.731 44.2938C150.334 44.0333 149.883 43.9124 149.43 43.9454C149.045 43.9539 148.664 44.0547 148.312 44.2419C147.96 44.4291 147.644 44.6987 147.383 45.0345C147.121 45.3703 146.92 45.7653 146.791 46.1957C146.662 46.6261 146.609 47.0828 146.633 47.5385C146.596 47.9971 146.642 48.4598 146.766 48.8964C146.891 49.3329 147.091 49.7337 147.355 50.0725C147.619 50.4114 147.94 50.6808 148.297 50.8633C148.655 51.0457 149.041 51.1371 149.43 51.1315C149.878 51.1287 150.318 50.9926 150.709 50.7357C151.1 50.4788 151.43 50.1093 151.669 49.6615V50.9677H152.508V44.1092H151.669V45.4154ZM149.571 49.9891C149.031 49.9122 148.533 49.6039 148.173 49.1225C147.812 48.6412 147.613 48.0201 147.613 47.3768C147.613 46.7334 147.812 46.1124 148.173 45.631C148.533 45.1497 149.031 44.8414 149.571 44.7644C149.856 44.7609 150.14 44.8271 150.403 44.9588C150.666 45.0906 150.904 45.285 151.1 45.5302C151.297 45.7753 151.449 46.0657 151.547 46.3835C151.645 46.7012 151.686 47.0393 151.669 47.3768C151.71 47.72 151.685 48.0698 151.596 48.4C151.507 48.7302 151.356 49.0323 151.154 49.2836C150.952 49.535 150.705 49.729 150.431 49.8511C150.157 49.9733 149.862 50.0205 149.571 49.9891ZM157.264 43.7837C156.835 43.7866 156.415 43.9242 156.046 44.1826C155.678 44.4409 155.374 44.8106 155.165 45.2537V43.9475H154.326V50.806H155.165V47.2046C155.132 46.8991 155.153 46.5887 155.229 46.2938C155.304 45.999 155.432 45.7266 155.604 45.4948C155.775 45.2629 155.986 45.077 156.223 44.9492C156.46 44.8215 156.717 44.7549 156.978 44.7539C157.184 44.7264 157.392 44.7537 157.588 44.8339C157.784 44.914 157.962 45.0449 158.109 45.2171C158.257 45.3892 158.37 45.5982 158.441 45.8287C158.511 46.0592 158.537 46.3054 158.517 46.5494V50.6317H159.356V46.2218C159.371 45.8934 159.327 45.5652 159.226 45.2585C159.126 44.9519 158.972 44.6739 158.774 44.4428C158.576 44.2117 158.34 44.0327 158.079 43.9177C157.819 43.8026 157.541 43.7541 157.264 43.7753V43.7837ZM163.417 46.8854C162.299 46.5578 161.738 46.3961 161.738 45.9047C161.738 45.2516 162.297 44.924 163.277 44.924C164.117 44.924 164.676 45.2516 164.816 45.9047H165.656C165.516 45.2673 165.181 44.7141 164.716 44.3521C164.251 43.9901 163.689 43.8452 163.139 43.9454C161.74 43.9454 160.76 44.7623 160.76 46.0685C160.76 47.2109 161.46 47.5385 163.139 48.0278C164.257 48.3554 164.818 48.5171 164.818 49.1701C164.818 49.8232 164.119 50.1508 163.279 50.1508C162.161 50.1508 161.6 49.8232 161.326 48.8447H160.347C160.492 49.565 160.857 50.1964 161.372 50.6171C161.888 51.0377 162.516 51.218 163.137 51.1231C164.395 51.1231 165.516 50.47 165.516 49.0001C165.796 47.5301 164.816 47.3663 163.417 46.877V46.8854ZM170.271 43.7837C169.823 43.7865 169.384 43.9226 168.992 44.1796C168.601 44.4365 168.271 44.8059 168.032 45.2537V43.7837H167.193V53.746H168.032V49.1639C168.248 49.6359 168.574 50.025 168.97 50.2855C169.367 50.5459 169.818 50.6668 170.271 50.6338C170.656 50.6253 171.036 50.5247 171.387 50.3381C171.739 50.1514 172.055 49.8825 172.316 49.5476C172.577 49.2127 172.779 48.8187 172.908 48.3894C173.037 47.96 173.092 47.5041 173.068 47.0492C173.016 46.1953 172.703 45.3929 172.189 44.7909C171.675 44.1888 170.993 43.828 170.271 43.7753V43.7837ZM169.99 49.9891C169.705 49.9927 169.421 49.9265 169.158 49.7947C168.895 49.663 168.657 49.4685 168.46 49.2234C168.264 48.9783 168.112 48.6878 168.014 48.3701C167.916 48.0524 167.875 47.7142 167.892 47.3768C167.881 46.7024 168.095 46.05 168.488 45.561C168.881 45.072 169.42 44.7858 169.99 44.7644C170.269 44.766 170.543 44.8371 170.797 44.973C171.05 45.109 171.277 45.3068 171.461 45.5534C171.645 45.8 171.783 46.09 171.867 46.4042C171.95 46.7184 171.976 47.0498 171.943 47.3768C171.999 47.708 171.99 48.0502 171.916 48.3765C171.842 48.7029 171.705 49.0044 171.516 49.2576C171.327 49.5107 171.09 49.7085 170.826 49.8354C170.561 49.9624 170.275 50.015 169.99 49.9891ZM179.082 45.4175C178.866 44.9455 178.541 44.5563 178.144 44.2959C177.748 44.0354 177.296 43.9145 176.844 43.9475C176.458 43.956 176.077 44.0568 175.725 44.244C175.373 44.4312 175.057 44.7008 174.796 45.0366C174.534 45.3724 174.333 45.7675 174.204 46.1978C174.075 46.6282 174.022 47.0849 174.046 47.5406C174.01 47.9992 174.055 48.4619 174.179 48.8985C174.304 49.335 174.504 49.7358 174.768 50.0746C175.032 50.4135 175.353 50.6829 175.711 50.8654C176.068 51.0478 176.454 51.1392 176.844 51.1336C177.291 51.1308 177.731 50.9947 178.122 50.7378C178.513 50.4809 178.843 50.1114 179.082 49.6636V50.9698H179.921V44.1092H179.082V45.4175ZM176.984 49.9891C176.706 49.9876 176.431 49.9165 176.177 49.7805C175.924 49.6446 175.697 49.4468 175.513 49.2001C175.329 48.9535 175.191 48.6636 175.108 48.3494C175.025 48.0351 174.999 47.7037 175.031 47.3768C175.011 47.0526 175.045 46.727 175.133 46.4189C175.221 46.1109 175.36 45.8267 175.542 45.5832C175.724 45.3397 175.945 45.1418 176.193 45.0012C176.44 44.8606 176.709 44.78 176.984 44.7644C177.27 44.7609 177.553 44.8271 177.816 44.9588C178.079 45.0906 178.317 45.285 178.514 45.5302C178.71 45.7753 178.862 46.0657 178.96 46.3835C179.058 46.7012 179.099 47.0393 179.082 47.3768C179.111 47.7172 179.078 48.0612 178.984 48.385C178.891 48.7088 178.739 49.005 178.54 49.253C178.341 49.5011 178.098 49.6954 177.83 49.8224C177.561 49.9495 177.273 50.0063 176.984 49.9891ZM182.438 45.5792V44.1092H181.599V50.9677H182.438V47.6939C182.395 47.3425 182.418 46.9843 182.505 46.6445C182.591 46.3046 182.74 45.9913 182.94 45.7267C183.14 45.4621 183.386 45.2525 183.662 45.1127C183.938 44.9729 184.236 44.9064 184.536 44.9177H184.955V43.7753H184.536C184.071 43.7776 183.618 43.9531 183.241 44.2768C182.865 44.6005 182.584 45.0562 182.438 45.5792ZM188.732 43.7837C187.927 43.7837 187.155 44.1623 186.585 44.8361C186.015 45.5099 185.695 46.4238 185.695 47.3768C185.695 48.3297 186.015 49.2436 186.585 49.9174C187.155 50.5913 187.927 50.9698 188.732 50.9698C189.328 51.0061 189.918 50.8209 190.42 50.4401C190.921 50.0593 191.31 49.5021 191.53 48.8468H190.55C190.372 49.2233 190.105 49.5312 189.783 49.7338C189.461 49.9363 189.096 50.025 188.732 49.9891C188.465 50.0159 188.196 49.9767 187.942 49.8738C187.688 49.771 187.456 49.6068 187.258 49.3918C187.061 49.1767 186.904 48.9154 186.796 48.6246C186.689 48.3337 186.634 48.0197 186.634 47.7023H191.67C191.719 47.2111 191.679 46.7132 191.554 46.2414C191.429 45.7696 191.221 45.3344 190.943 44.9644C190.666 44.5943 190.326 44.2979 189.945 44.0944C189.564 43.891 189.151 43.7851 188.732 43.7837ZM186.634 46.7237C186.718 46.1483 186.979 45.6298 187.366 45.2681C187.753 44.9063 188.24 44.7269 188.732 44.7644C189.208 44.7321 189.676 44.9175 190.04 45.2822C190.403 45.6469 190.634 46.163 190.685 46.7237H186.634ZM195.864 43.7837C195.436 43.7866 195.016 43.9242 194.647 44.1826C194.278 44.4409 193.975 44.8106 193.766 45.2537V43.9475H192.927V50.806H193.766V47.2046C193.733 46.8988 193.755 46.588 193.831 46.293C193.907 45.998 194.035 45.7255 194.207 45.4938C194.379 45.2621 194.591 45.0765 194.828 44.9492C195.066 44.822 195.323 44.7561 195.584 44.756C195.79 44.7285 195.998 44.7559 196.194 44.836C196.39 44.9161 196.568 45.047 196.716 45.2192C196.863 45.3913 196.976 45.6003 197.047 45.8308C197.117 46.0613 197.143 46.3075 197.123 46.5515V50.6338H197.962V46.2239C198.103 44.7539 197.263 43.7753 195.864 43.7753V43.7837ZM202.299 49.9891C201.319 49.9891 200.9 49.336 200.9 48.1937V44.9177H203.563V43.937H200.9V42.1415L200.061 42.3053V43.9391H198.942V44.9198H200.061V48.1832C200.018 48.5345 200.04 48.8927 200.127 49.2326C200.214 49.5724 200.362 49.8857 200.562 50.1503C200.762 50.415 201.009 50.6246 201.285 50.7643C201.56 50.9041 201.859 50.9707 202.159 50.9593C202.705 51.0216 203.251 50.8478 203.698 50.47L203.557 49.6531C203.155 49.8424 202.731 49.9558 202.299 49.9891ZM207.475 43.7837C206.669 43.7837 205.897 44.1623 205.327 44.8361C204.758 45.5099 204.438 46.4238 204.438 47.3768C204.438 48.3297 204.758 49.2436 205.327 49.9174C205.897 50.5913 206.669 50.9698 207.475 50.9698C208.07 51.0061 208.66 50.8209 209.162 50.4401C209.664 50.0593 210.052 49.5021 210.272 48.8468H209.292C209.114 49.2233 208.848 49.5312 208.525 49.7338C208.203 49.9363 207.838 50.025 207.475 49.9891C207.205 50.0295 206.931 49.9997 206.673 49.9019C206.414 49.8041 206.176 49.6405 205.976 49.4227C205.777 49.2049 205.619 48.9381 205.516 48.6409C205.412 48.3438 205.365 48.0234 205.377 47.7023H210.405C210.466 47.2086 210.436 46.705 210.315 46.2269C210.195 45.7487 209.987 45.3076 209.707 44.9342C209.427 44.5609 209.082 44.2645 208.695 44.0658C208.308 43.8671 207.889 43.7708 207.468 43.7837H207.475ZM205.377 46.7237C205.46 46.1483 205.721 45.6298 206.108 45.2681C206.495 44.9063 206.982 44.7269 207.475 44.7644C207.951 44.7316 208.419 44.9168 208.783 45.2816C209.146 45.6464 209.377 46.1628 209.427 46.7237H205.377Z" fill="#2689EB"/>
</g>
<defs>
<clipPath id="clip0_1410_7546">
<rect width="213" height="56" fill="white"/>
</clipPath>
</defs>
</svg>
