<svg width="53" height="70" viewBox="0 0 53 70" fill="none" xmlns="http://www.w3.org/2000/svg">
<circle opacity="0.4" cx="26.5" cy="26.5" r="26.5" fill="black"/>
<path d="M26.9285 28.7276H24.9442C24.9442 28.322 24.9718 27.9648 25.0271 27.656C25.087 27.3425 25.1885 27.0614 25.3313 26.8125C25.4742 26.5636 25.6678 26.3331 25.9121 26.1211C26.1287 25.9413 26.3154 25.7685 26.4721 25.6025C26.6289 25.4366 26.7487 25.2683 26.8317 25.0978C26.9146 24.9273 26.9561 24.7452 26.9561 24.5516C26.9561 24.3119 26.9215 24.116 26.8524 23.9639C26.7879 23.8118 26.6888 23.6989 26.5551 23.6251C26.426 23.5468 26.2624 23.5076 26.0642 23.5076C25.9029 23.5076 25.7508 23.5468 25.6079 23.6251C25.4696 23.7035 25.3567 23.8256 25.2691 23.9916C25.1815 24.1529 25.1331 24.3672 25.1239 24.6346H22.7801C22.7939 23.9478 22.946 23.3901 23.2364 22.9614C23.5314 22.5281 23.9232 22.2124 24.4118 22.0142C24.905 21.8114 25.4558 21.71 26.0642 21.71C26.7372 21.71 27.3156 21.8137 27.7996 22.0211C28.2836 22.2285 28.6546 22.5373 28.9128 22.9476C29.1709 23.3532 29.2999 23.8533 29.2999 24.4479C29.2999 24.8443 29.2239 25.19 29.0718 25.485C28.9243 25.7754 28.7238 26.0473 28.4703 26.3008C28.2214 26.5497 27.9425 26.8171 27.6337 27.1028C27.3663 27.3379 27.1843 27.5776 27.0875 27.8219C26.9907 28.0616 26.9377 28.3635 26.9285 28.7276ZM24.6607 30.8295C24.6607 30.4976 24.7805 30.221 25.0202 29.9998C25.2599 29.7739 25.571 29.661 25.9536 29.661C26.3362 29.661 26.6473 29.7739 26.887 29.9998C27.1267 30.221 27.2465 30.4976 27.2465 30.8295C27.2465 31.1613 27.1267 31.4402 26.887 31.6661C26.6473 31.8873 26.3362 31.9979 25.9536 31.9979C25.571 31.9979 25.2599 31.8873 25.0202 31.6661C24.7805 31.4402 24.6607 31.1613 24.6607 30.8295Z" fill="white"/>
<path d="M14 18.4474V34.3553C14 35.7069 15.0957 36.8026 16.4474 36.8026H30.9696C31.8293 36.8026 32.6259 37.2537 33.0682 37.9908L33.9277 39.4234C35.2048 41.5518 38.4737 40.6464 38.4737 38.1642V18.4474C38.4737 17.0957 37.378 16 36.0263 16H16.4474C15.0957 16 14 17.0957 14 18.4474Z" stroke="white" stroke-width="1.63158" stroke-linecap="round" stroke-linejoin="round"/>
</svg>
