<svg width="118" height="118" viewBox="0 0 118 118" fill="none" xmlns="http://www.w3.org/2000/svg">
<g clip-path="url(#clip0_2001_24818)">
<path d="M59 0C91.5833 0 118 26.4167 118 59C118 91.5833 91.5822 118 59 118C26.4178 118 0 91.5904 0 59C0 26.4096 26.4131 0 59 0Z" fill="url(#paint0_linear_2001_24818)"/>
<path d="M66.2817 51.1381V42.3612H86.3524V28.9883H31.6995V42.3612H51.7725V51.131C35.459 51.8803 23.1929 55.1111 23.1929 58.9815C23.1929 62.8519 35.4649 66.0828 51.7725 66.8368V94.9503H66.2865V66.8344C82.5705 66.0828 94.8118 62.8543 94.8118 58.9874C94.8118 55.1206 82.5705 51.8921 66.2865 51.1404M66.2865 64.4532V64.4461C65.877 64.4721 63.7731 64.5983 59.0885 64.5983C55.3431 64.5983 52.7082 64.4921 51.7795 64.4437V64.4555C37.367 63.8172 26.609 61.3073 26.609 58.3042C26.609 55.3011 37.3682 52.7948 51.7795 52.1552V61.9551C52.7235 62.02 55.4234 62.1793 59.1498 62.1793C63.6256 62.1793 65.8758 61.9929 66.2888 61.9551V52.1552C80.673 52.796 91.4063 55.3082 91.4063 58.3007C91.4063 61.2931 80.6683 63.8065 66.2888 64.4473" fill="white"/>
</g>
<defs>
<linearGradient id="paint0_linear_2001_24818" x1="59" y1="0" x2="59" y2="130.5" gradientUnits="userSpaceOnUse">
<stop stop-color="#53AE94"/>
<stop offset="1" stop-color="#53AE94" stop-opacity="0"/>
</linearGradient>
<clipPath id="clip0_2001_24818">
<rect width="118" height="118" fill="white"/>
</clipPath>
</defs>
</svg>
