<svg width="53" height="70" viewBox="0 0 53 70" fill="none" xmlns="http://www.w3.org/2000/svg">
<path opacity="0.4" d="M53 26.5C53 41.1355 41.1355 53 26.5 53C11.8645 53 0 41.1355 0 26.5C0 11.8645 11.8645 0 26.5 0C41.1355 0 53 11.8645 53 26.5Z" fill="black"/>
<rect x="14.8287" y="18.8287" width="23.2024" height="16.3427" rx="0.828659" stroke="white" stroke-width="1.65732"/>
<path d="M14.8287 33.3754L17.1984 31.3957C17.2752 31.3316 17.3388 31.2532 17.3858 31.1649L18.5429 28.9897C18.7309 28.6364 19.1569 28.4842 19.5261 28.6385L21.8799 29.6217C22.1994 29.7552 22.5686 29.6606 22.7846 29.3899L24.9178 26.7166C25.0221 26.5859 25.166 26.4923 25.3279 26.4501L31.5377 24.8288C31.9025 24.7336 32.2829 24.9146 32.4391 25.2577L34.5098 29.8062C34.6357 30.0827 34.9115 30.2602 35.2153 30.2602H37.6168" stroke="white" stroke-width="1.65732" stroke-linecap="round" stroke-linejoin="round"/>
</svg>
