<svg width="216" height="42" viewBox="0 0 216 42" fill="none" xmlns="http://www.w3.org/2000/svg">
<g clip-path="url(#clip0_1410_7535)">
<path fill-rule="evenodd" clip-rule="evenodd" d="M66.2589 29.4331V12.7323C66.2589 5.62205 60.2833 0 52.9017 0H49.7381V7.44094C49.7381 17.8583 40.7747 26.2913 29.7023 26.2913H21.7935V29.2677C21.7935 36.2126 27.769 41.8346 35.1507 41.8346H52.9017C60.2833 42 66.2589 36.3779 66.2589 29.4331Z" fill="#A7CD45"/>
<path fill-rule="evenodd" clip-rule="evenodd" d="M42.8837 7.44095V0H34.9749C27.5933 0 21.6177 5.62205 21.6177 12.7323V20.1732H29.5265C36.9082 20.1732 42.8837 14.3858 42.8837 7.44095Z" fill="#106C3A"/>
<path fill-rule="evenodd" clip-rule="evenodd" d="M5.79984 5.78906H0V11.2458C0 16.2064 4.21806 20.1749 9.49064 20.1749H15.2905V14.7182C15.2905 9.92292 10.8967 5.78906 5.79984 5.78906Z" fill="#106C3A"/>
<path fill-rule="evenodd" clip-rule="evenodd" d="M114.239 12.401V40.5112C114.239 40.5112 114.415 41.5033 115.645 41.5033H120.742C120.742 41.5033 121.797 41.338 121.797 40.3458V12.401C121.797 12.401 121.797 11.0781 120.391 11.0781H115.47C115.294 11.0781 114.239 11.0781 114.239 12.401Z" fill="#65696E"/>
<path fill-rule="evenodd" clip-rule="evenodd" d="M132.869 11.2433H128.299C128.299 11.2433 126.718 11.078 127.069 12.5662C127.421 14.0543 134.626 38.0307 134.626 38.0307C134.626 38.0307 136.208 41.9992 141.481 41.9992C146.753 41.9992 148.159 38.1961 148.159 38.1961L155.717 13.0622C155.717 13.0622 156.42 11.2433 154.838 11.2433H149.565C149.565 11.2433 148.335 11.4087 147.984 12.7315C147.632 14.0543 142.535 35.5504 142.535 35.5504C142.535 35.5504 142.36 36.3772 141.656 36.3772C140.778 36.3772 140.602 35.385 140.602 35.385L134.978 12.4008C134.978 12.5662 134.802 11.078 132.869 11.2433Z" fill="#65696E"/>
<path fill-rule="evenodd" clip-rule="evenodd" d="M85.0642 11.2433H80.4946C80.4946 11.2433 78.9128 11.0779 79.2643 12.5661C79.7916 13.889 86.8217 38.0307 86.8217 38.0307C86.8217 38.0307 88.4035 41.9992 93.6761 41.9992C98.9486 41.9992 100.355 38.1961 100.355 38.1961L107.912 13.0622C107.912 13.0622 108.615 11.2433 107.033 11.2433H101.761C101.761 11.2433 100.53 11.4086 100.179 12.7315C99.8274 14.0543 94.7306 35.7157 94.7306 35.7157C94.7306 35.7157 94.5548 36.5425 93.8518 36.5425C92.9731 36.5425 92.7973 35.5504 92.7973 35.5504L87.1732 12.5661C87.1732 12.5661 86.9975 11.0779 85.0642 11.2433Z" fill="#65696E"/>
<path fill-rule="evenodd" clip-rule="evenodd" d="M160.638 12.2357V31.0861C160.638 31.0861 160.989 41.8341 173.819 41.8341C186.649 41.8341 186.825 31.5822 186.825 31.5822V12.2357C186.825 12.2357 187.001 10.9129 185.595 10.9129H180.673C180.673 10.9129 179.619 10.7475 179.619 12.0703V31.5822C179.619 31.5822 178.916 35.716 173.995 35.716C169.074 35.716 168.195 31.5822 168.195 31.5822V12.7318C168.195 12.7318 168.371 11.0782 166.789 11.0782H161.516C161.692 11.0782 160.638 11.0782 160.638 12.2357Z" fill="#65696E"/>
<path fill-rule="evenodd" clip-rule="evenodd" d="M213.364 17.0322C213.364 17.0322 207.213 16.3708 204.576 16.5361C201.94 16.5361 200.534 16.8668 200.534 18.6857C200.534 20.5046 202.819 21.3314 204.576 22.1582C206.51 23.3156 211.255 25.796 212.661 26.9534C214.067 28.1109 215.824 29.9298 215.824 33.4023C215.824 36.7093 213.891 40.0164 210.552 41.0085C207.037 42.166 200.71 41.8353 198.073 41.5046C195.437 41.1739 194.734 40.8432 194.383 40.8432C193.855 40.6778 193.328 40.3471 193.328 39.355V36.7093C193.328 36.7093 193.328 35.2211 195.086 35.5519C196.843 35.8826 201.764 36.544 204.049 36.3786C206.51 36.2133 208.091 36.0479 208.443 34.0637C208.619 32.0794 206.158 31.2526 203.522 29.7645C201.061 28.2763 198.776 27.1188 196.843 25.6306C194.91 24.1424 193.152 21.3314 193.152 18.355C193.152 15.3786 195.437 10.9141 203.698 10.9141C211.079 10.9141 213.715 11.7408 214.243 11.9062C214.594 12.0715 215.297 12.2369 215.297 13.229V16.2054C215.297 16.2054 215.297 17.1975 213.364 17.0322Z" fill="#65696E"/>
<path fill-rule="evenodd" clip-rule="evenodd" d="M114.239 1.4869V6.11682C114.239 6.11682 114.415 7.2743 115.294 7.2743H120.391C120.391 7.2743 121.621 7.43965 121.621 6.11682V1.4869C121.621 1.4869 121.797 0.164062 120.039 0.164062H115.47C113.888 0.164063 114.239 1.4869 114.239 1.4869Z" fill="#65696E"/>
</g>
<defs>
<clipPath id="clip0_1410_7535">
<rect width="216" height="42" fill="white"/>
</clipPath>
</defs>
</svg>
